<svg xmlns="http://www.w3.org/2000/svg" width="609" height="609" version="1.0" viewBox="0 0 456.75 456.75"><defs><clipPath id="a"><path d="M406 62h50.5v68H406Zm0 0"/></clipPath><clipPath id="b"><path d="M197 0h259.5v65H197Zm0 0"/></clipPath><clipPath id="c"><path d="M245 0h211.5v26H245Zm0 0"/></clipPath><clipPath id="d"><path d="M222 0h234.5v38H222Zm0 0"/></clipPath><clipPath id="e"><path d="M268 55h188.5v260H268Zm0 0"/></clipPath><clipPath id="f"><path d="M365 137h91.5v143H365Zm0 0"/></clipPath><clipPath id="g"><path d="M291 75h165.5v218H291Zm0 0"/></clipPath><clipPath id="h"><path d="M96 322h360.5v134.5H96Zm0 0"/></clipPath><clipPath id="i"><path d="M207 367h249.5v89.5H207Zm0 0"/></clipPath><clipPath id="j"><path d="M433 447h23.5v9.5H433Zm0 0"/></clipPath><clipPath id="k"><path d="M240 393h216.5v63.5H240Zm0 0"/></clipPath><clipPath id="l"><path d="M112 345h344.5v111.5H112Zm0 0"/></clipPath><clipPath id="m"><path d="M85 439h75v17.5H85Zm0 0"/></clipPath><clipPath id="n"><path d="M0 327h89v129.5H0Zm0 0"/></clipPath><clipPath id="o"><path d="M0 367h47v89.5H0Zm0 0"/></clipPath><clipPath id="p"><path d="M0 346h61v110.5H0Zm0 0"/></clipPath><clipPath id="q"><path d="M427 74h29.5v31H427Zm0 0"/></clipPath></defs><path fill="#fafbf9" d="M108.07 158.762c1.524-2.797 3.575-5.336 5.555-7.793 1.246-1.543 2.531-3.137 3.688-4.793 1.203-1.719 2.292-3.551 3.347-5.317 1.41-2.367 2.867-4.812 4.594-6.992 2.027-2.562 6.266-6.898 11.871-7.14q.204-.012.406-.012c3.992 0 7.746 2.547 9.219 6.3 1.305 3.317.43 6.704-2.332 9.051-.867.739-1.828 1.414-2.758 2.067-1.617 1.137-3.293 2.312-4.582 3.887-2.5 3.054-3.144 7.023-3.77 10.863-.218 1.351-.449 2.746-.75 4.07-1.476 6.422-5.074 11.453-9.867 13.805-4.863 2.383-12.199 1.535-15.375-3.524-2.812-4.48-1.457-10.414.754-14.472m8.91 20.172c2.16 0 4.301-.47 6.114-1.356 5.043-2.473 8.816-7.73 10.355-14.422.309-1.351.54-2.761.758-4.12.61-3.727 1.234-7.579 3.578-10.438 1.207-1.48 2.758-2.567 4.399-3.72.949-.663 1.925-1.35 2.824-2.116 3.074-2.614 4.043-6.387 2.594-10.078-1.668-4.243-6.008-7.07-10.516-6.871-5.969.257-10.426 4.8-12.55 7.488-1.763 2.226-3.235 4.699-4.661 7.09-1.047 1.754-2.129 3.57-3.312 5.261-1.137 1.63-2.41 3.215-3.645 4.743-2.012 2.488-4.086 5.062-5.648 7.93-2.332 4.284-3.747 10.581-.727 15.394 2.242 3.574 6.383 5.215 10.437 5.215"/><path fill="#fafbf9" d="m95.414 152.258 27.453-37.504c6.067-8.285 12.238-15.922 21.02-18.324 1.976-.54 3.957-.79 5.926-.79 10.148 0 20.054 6.544 28.757 12.919 3.934 2.89 8.008 5.875 10.809 9.957 2.39 3.48 4.215 8.902 2.156 13.68-1.91 4.425-6.445 6.847-9.914 8.097-2.887 1.043-5.707 1.8-8.43 2.539-7.582 2.047-14.742 3.984-20.765 11.426-2.242 2.765-4.192 5.91-5.961 9.61-2.438 5.089-4.153 10.503-5.371 14.652-.516 1.746-1.008 3.496-1.504 5.25-1.899 6.726-3.86 13.683-6.945 20.046-.98 2.016-2.133 4.09-3.891 5.598-8.129 6.961-22.766-2.695-28.68-7.168-7.168-5.422-14.047-11.605-15.804-20.035-2.207-10.586 4.296-20.602 11.144-29.953m4.113 50.715c4.528 3.425 14.04 9.789 22.164 9.789 2.801 0 5.446-.758 7.657-2.657 1.882-1.613 3.093-3.785 4.117-5.89 3.12-6.434 5.094-13.43 7-20.195.496-1.75.988-3.5 1.504-5.247 1.21-4.113 2.91-9.48 5.316-14.511 1.742-3.633 3.656-6.723 5.852-9.43 5.836-7.215 12.535-9.023 20.289-11.117 2.746-.742 5.586-1.508 8.504-2.563 3.64-1.308 8.406-3.87 10.445-8.597 1.84-4.278.984-9.86-2.246-14.563-2.89-4.207-7.024-7.234-11.024-10.168-10.558-7.742-22.882-15.715-35.46-12.273-9.067 2.476-15.352 10.242-21.512 18.664l-27.457 37.504c-6.664 9.101-13.582 19.73-11.297 30.683 1.812 8.72 8.836 15.04 16.148 20.57"/><path fill="#fafbf9" d="M64.89 168.852c.598-.528 1.192-1.051 1.782-1.582 22.953-20.645 40.32-48.344 48.894-78.004.196-.676.387-1.356.582-2.036 1.88-6.625 3.82-13.476 8.61-18.261 3.633-3.63 8.785-5.664 13.914-5.664 1.422 0 2.844.156 4.23.48 10.086 2.344 17.032 10.922 23.746 19.219 2.145 2.644 4.168 5.144 6.286 7.437 7.39 8.004 16.054 14.684 25.746 19.86 4.324 2.304 9.11 3.914 13.734 5.465 5.633 1.89 11.457 3.843 16.39 7.066 5.106 3.332 9.258 10.031 6.9 15.875-2.15 5.32-8.474 7.344-13.235 7.457-3.309.086-6.649-.484-9.883-1.035-2.14-.363-4.352-.738-6.55-.93-4.755-.41-9.278-.12-13.438.856-13.57 3.183-27.309 13.922-35.004 27.351-5.172 9.028-8.38 19.059-11.477 28.758-.633 1.98-1.207 4.41-1.82 6.984-1.594 6.747-3.399 14.399-7.11 18.133-5.292 5.324-17.394 6.387-23.902 5.434-8.906-1.32-17.027-6.34-24.195-10.774l-29.102-17.984c-2.14-1.324-4.36-2.695-5.957-4.66-4.043-4.973-2.976-12.29-.125-17.328 2.688-4.746 6.907-8.492 10.985-12.117M53.114 180.52c-3.008 5.312-4.105 13.042.211 18.351 1.696 2.086 3.977 3.496 6.184 4.863l29.105 17.985c7.239 4.476 15.446 9.547 24.54 10.894 1.476.219 3.19.34 5.034.34 6.778 0 15.266-1.621 19.645-6.027 3.895-3.918 5.734-11.703 7.356-18.57.605-2.551 1.175-4.965 1.796-6.91 3.086-9.657 6.278-19.641 11.403-28.583 7.574-13.222 21.082-23.789 34.418-26.922 4.066-.953 8.496-1.234 13.152-.832 2.16.188 4.356.559 6.477.918 3.273.559 6.66 1.133 10.054 1.047 5.043-.12 11.75-2.297 14.063-8.023 2.543-6.297-1.836-13.45-7.246-16.985-5.032-3.285-10.91-5.257-16.598-7.168-4.594-1.539-9.34-3.132-13.594-5.402-9.605-5.125-18.187-11.746-25.511-19.676-2.094-2.265-4.106-4.754-6.243-7.39-6.812-8.418-13.859-17.118-24.25-19.535-6.687-1.555-14.14.578-18.996 5.425-4.957 4.957-6.933 11.922-8.843 18.66-.192.68-.383 1.356-.582 2.032-8.528 29.496-25.797 57.047-48.625 77.582-.59.527-1.18 1.05-1.774 1.578-4.14 3.672-8.418 7.469-11.176 12.348"/><path fill="#fafbf9" d="M97.031 94.383c.84-5.422 1.52-10.977 2.176-16.348 1.7-13.82 3.45-28.11 8.117-41.402 1.59-4.531 3.965-10.293 8.219-14.676 3.719-3.828 8.434-5.973 12.95-5.973.69 0 1.382.047 2.058.153 5.02.754 8.949 4.027 13.101 7.492 3.766 3.137 7.66 6.379 12.422 7.535 4.051.988 8.426.398 12.656-.164 5.922-.793 11.516-1.543 15.88 1.863 4.992 3.895 5.273 10.907 5.538 17.692.032.851.063 1.695.106 2.523.77 14.8 7.035 29.477 17.2 40.27 7.468 7.925 13.253 12.316 24.136 14.347 7.336 1.364 14.246 3.024 18.176 8.239 2 2.66 2.902 5.832 3.863 9.191.55 1.938 1.125 3.941 1.922 5.82 2.707 6.348 8.426 11.895 16.097 15.625 4.036 1.961 8.813 3.243 13.434 4.48 8.809 2.364 17.918 4.81 23.25 12.032 1.758 2.379 2.59 5.918 2.07 8.79-.379 2.089-1.418 3.741-3.015 4.78-5.367 3.5-14.95-1.004-17.758-2.464-3.207-1.668-6.246-3.758-9.192-5.778-2.109-1.445-4.28-2.941-6.515-4.277-11.16-6.696-24.535-9.66-42.078-9.332a171.6 171.6 0 0 0-29.258 3.082c-9.188 1.777-16.324 5.574-22.668 9.414-12.234 7.394-17.414 20.766-22.055 34.973a31352 31352 0 0 0-11.054 33.96l-5.371 16.512c-1.77 5.442-4.051 10.707-8.72 12.313-4.718 1.629-9.91-1.36-12.968-5.047-1.914-2.313-3.383-5.028-4.8-7.653-.977-1.808-1.985-3.675-3.145-5.417-6.524-9.833-17.364-15.532-27.106-19.805a399 399 0 0 0-6.07-2.59c-8.242-3.469-16.766-7.055-23.871-12.598-7.844-6.129-15.54-16.87-13.606-28.652 1.13-6.887 5.578-13.66 13.223-20.121 2.625-2.219 5.45-4.3 8.176-6.313 3.855-2.847 7.847-5.789 11.363-9.18 11.906-11.484 19.25-28.417 23.117-53.296m-35.023 61.742c-2.742 2.02-5.574 4.11-8.223 6.352-7.812 6.605-12.367 13.562-13.535 20.668-1.996 12.171 5.895 23.23 13.95 29.52 7.195 5.616 15.777 9.226 24.073 12.718 2.028.855 4.055 1.707 6.059 2.582 9.621 4.226 20.316 9.84 26.715 19.476 1.133 1.711 2.133 3.559 3.101 5.352 1.438 2.66 2.926 5.414 4.903 7.8 2.617 3.157 6.742 5.829 10.93 5.829a9.2 9.2 0 0 0 3.039-.5c5.039-1.742 7.44-7.23 9.289-12.899l5.37-16.511c3.68-11.32 7.36-22.645 11.051-33.961 4.586-14.035 9.692-27.238 21.66-34.477 7.247-4.383 13.825-7.64 22.368-9.293a170 170 0 0 1 29.105-3.066c17.348-.324 30.586 2.594 41.594 9.2 2.203 1.32 4.371 2.808 6.461 4.25 2.969 2.03 6.035 4.136 9.289 5.831 2.922 1.524 12.895 6.188 18.68 2.422 1.808-1.18 2.992-3.043 3.414-5.383.57-3.156-.305-6.883-2.235-9.496-5.52-7.48-14.785-9.965-23.746-12.371-4.793-1.285-9.32-2.496-13.273-4.418-7.477-3.633-13.035-9.02-15.656-15.164-.778-1.824-1.344-3.8-1.883-5.711-.942-3.29-1.914-6.695-4.016-9.492-4.12-5.477-11.215-7.188-18.73-8.582-10.64-1.985-16.309-6.297-23.645-14.082-10.015-10.633-16.191-25.098-16.949-39.688-.043-.824-.074-1.664-.106-2.511-.265-6.668-.566-14.223-5.89-18.38-4.668-3.636-10.715-2.831-16.563-2.046-4.144.554-8.433 1.133-12.316.187-4.559-1.11-8.371-4.285-12.055-7.355-4.066-3.39-8.273-6.895-13.547-7.692-5.406-.816-11.308 1.457-15.804 6.086-4.38 4.512-6.801 10.39-8.422 15.012-4.703 13.383-6.461 27.723-8.164 41.59-.653 5.367-1.336 10.91-2.172 16.324-3.832 24.668-11.094 41.438-22.848 52.777-3.472 3.348-7.437 6.27-11.273 9.102"/><path fill="#fafbf9" d="M363.934 318.195c.617 7.97.851 16.457-1.575 24.528-2.582 8.586-8.218 15.418-15.082 18.273-6.859 2.856-15.422 2.266-25.453-1.75-3.082-1.23-6.144-2.683-9.105-4.09-4.922-2.336-10.012-4.75-15.364-6.242-19.867-5.52-40.445 1.828-61.539 10.527-21.836 9.004-41.496 16.043-60.921 10.957-14.157-3.699-26.352-14.64-32.633-29.257-5.836-13.598-5.485-28.098.957-39.793 2.254-4.086 5.21-7.965 8.074-11.72 3.36-4.401 6.832-8.952 9.168-13.85 3.926-8.227 6.39-17.755 8.773-26.966 1.176-4.554 2.29-8.851 3.57-13.027 1.766-5.765 3.766-12.305 6.196-18.41 2.531-6.352 5.285-11.64 8.414-16.168 8.305-11.988 21.566-20.914 36.39-24.477 8.34-2 20.372-3.25 30.36 2.192 5.113 2.785 9.66 6.605 14.059 10.3 3.25 2.731 6.613 5.555 10.191 7.958 7.242 4.855 15.496 8.086 23.477 11.207 5.574 2.18 11.343 4.437 16.71 7.226 32.2 16.735 42.422 65.024 45.333 102.582m-61.711-110.66c-7.934-3.105-16.141-6.312-23.297-11.113-3.543-2.375-6.883-5.184-10.117-7.899-4.43-3.722-9.016-7.574-14.211-10.402-10.243-5.582-22.516-4.32-31.008-2.277-15.035 3.617-28.496 12.672-36.926 24.844-3.172 4.582-5.957 9.933-8.508 16.355-2.445 6.133-4.453 12.691-6.226 18.473-1.285 4.199-2.453 8.703-3.578 13.07-2.372 9.168-4.825 18.652-8.715 26.797-2.297 4.812-5.739 9.328-9.067 13.691-2.882 3.781-5.867 7.688-8.152 11.836-6.578 11.938-6.941 26.735-.992 40.59 6.387 14.875 18.812 26.008 33.234 29.785 4.602 1.2 9.203 1.738 13.84 1.738 15.23 0 30.805-5.789 47.664-12.742 20.938-8.636 41.356-15.933 60.95-10.484 5.269 1.465 10.327 3.863 15.21 6.183 2.973 1.41 6.051 2.872 9.16 4.114 10.262 4.11 19.059 4.695 26.145 1.746 7.113-2.965 12.945-10.008 15.605-18.856 2.465-8.21 2.23-16.8 1.606-24.859-2.926-37.793-13.246-86.395-45.817-103.32-5.41-2.817-11.203-5.078-16.8-7.27"/><path fill="#fafbf9" d="M344.395 295.793c1.832 8.477 2.043 15.246.664 21.293-1.707 7.492-6.207 13.746-12.036 16.723-5.636 2.882-12.859 3.144-21.472.789-3.27-.895-6.52-2.075-9.66-3.211-3.754-1.36-7.63-2.766-11.582-3.711-19.317-4.606-36.118 3.207-54.52 13.097-1.18.633-2.36 1.274-3.543 1.914-9.922 5.375-20.18 10.938-31.226 13.68-11.735 2.883-29.836.98-40.262-8.242-5.852-5.18-8.34-11.824-7.395-19.754.668-5.621 3.559-11.121 6.356-16.45 1.656-3.151 3.37-6.41 4.554-9.6 3.543-9.54 6.415-19.555 9.196-29.243 1.265-4.402 2.57-8.957 3.918-13.383 6.394-21.011 14.12-42.379 31.86-52.558 6.874-3.946 15.144-5.953 23.948-5.953 5.914 0 12.07.902 18.211 2.726 14.39 4.278 27.367 12.918 38.164 20.809 13.266 9.691 24.64 19.386 34.774 29.644 12.816 12.973 18.293 33.293 20.05 41.43m-92.727-92.754c-15.543-4.617-31.168-3.414-42.879 3.309-18.027 10.343-25.828 31.894-32.273 53.078-1.348 4.437-2.657 8.996-3.922 13.398-2.774 9.672-5.649 19.672-9.18 29.18-1.16 3.133-2.785 6.223-4.5 9.492-2.836 5.399-5.766 10.98-6.457 16.766-.969 8.133 1.688 15.234 7.691 20.547 7.68 6.793 19.41 9.707 29.84 9.707 4.051 0 7.903-.442 11.254-1.266 11.153-2.77 21.469-8.355 31.442-13.762 1.18-.636 2.359-1.277 3.535-1.91 18.238-9.8 34.883-17.547 53.879-13.012 3.906.934 7.754 2.329 11.476 3.676 3.164 1.145 6.434 2.328 9.735 3.235 8.84 2.418 16.285 2.128 22.128-.856 6.067-3.098 10.743-9.578 12.512-17.328 1.406-6.188 1.203-13.078-.664-21.691-1.773-8.215-7.305-28.739-20.293-41.88-10.168-10.288-21.578-20.019-34.883-29.742-10.859-7.933-23.918-16.628-38.441-20.94"/><path fill="#fafbf9" d="M321.215 298.844c-3.54 5.73-10.926 9.476-19.766 10.023-5.187.32-10.465-.324-15.57-.949-2.531-.309-5.149-.633-7.734-.832-21.239-1.649-43.098 4.851-59.993 17.816-1.418 1.09-2.828 2.243-4.195 3.36-3.512 2.87-7.14 5.836-11.2 7.945-6.382 3.32-13.112 3.754-18 1.16-6.058-3.219-8.507-10.297-8.773-15.847-.316-6.465 1.606-12.766 3.461-18.852l16.825-55.164c2.187-7.168 4.66-15.285 10.199-21.07 4.011-4.188 7.86-6.262 11.77-6.344q.12-.002.241-.004c6.567 0 12.336 5.543 18.43 11.398l.578.555c10.766 10.332 23.832 18.227 37.785 22.84 3.528 1.168 7.196 2.16 10.743 3.121 8.386 2.266 17.054 4.613 24.355 9.41 10.395 6.817 17.23 21.078 10.844 31.434m-45.656-44.828c-13.825-4.575-26.77-12.399-37.438-22.633l-.574-.559c-6.04-5.797-12.258-11.777-19.324-11.648-4.164.086-8.227 2.254-12.41 6.625-5.692 5.945-8.204 14.172-10.415 21.437l-16.828 55.16c-1.879 6.168-3.824 12.543-3.5 19.164.282 5.805 2.864 13.215 9.258 16.61 2.25 1.191 4.856 1.785 7.633 1.785 3.59 0 7.469-.992 11.219-2.941 4.144-2.153 7.808-5.149 11.355-8.047 1.36-1.11 2.762-2.262 4.176-3.344 16.715-12.828 38.351-19.25 59.363-17.629 2.567.2 5.172.516 7.696.828 5.144.625 10.464 1.278 15.738.953 9.27-.574 16.734-4.382 20.48-10.457 6.668-10.804-.367-25.62-11.113-32.675-7.43-4.872-16.168-7.235-24.617-9.524-3.535-.96-7.195-1.95-10.7-3.105"/><path fill="#fafbf9" d="M266.992 292.164c-3.574 1.504-7.605 1.621-11.504 1.734-.953.028-1.906.055-2.847.102-12.801.633-25.547 5.148-35.891 12.715q-.732.541-1.457 1.094c-2.164 1.62-4.395 3.304-6.914 4.261-2.582.98-6.496 1.297-9.04-1.058v.004c-1.644-1.528-2.394-4.211-2.23-7.98.578-13.294 12.586-36.196 18.711-40.954 6.805-5.281 12.352-3.23 19.64 2.098 10.536 7.695 15.825 9.312 28.56 10.867 3.699.453 8.117 2.293 9.398 6.098 1.508 4.496-2.164 9.222-6.426 11.02m-2.863-18.023c-12.547-1.536-17.762-3.125-28.129-10.7-6.102-4.46-12.734-8.296-20.742-2.078-6.395 4.965-18.461 27.856-19.059 41.633-.18 4.047.672 6.973 2.524 8.688 1.449 1.343 3.504 2.043 5.746 2.043 1.37 0 2.816-.266 4.234-.805 2.64-1.004 4.926-2.723 7.137-4.387q.721-.546 1.45-1.082c10.198-7.465 22.769-11.918 35.394-12.543q1.406-.063 2.832-.098c3.98-.117 8.101-.234 11.828-1.808 4.644-1.957 8.61-7.16 6.933-12.149-1.41-4.207-6.168-6.226-10.148-6.714"/><path fill="#fafbf9" d="M232.8 287.629c-1.968 1.781-5.09 2.453-8.144 1.75-2.511-.574-4.777-2.39-5.504-4.414-.504-1.406-.25-2.774.754-4.078 1.352-1.762 4.668-2.625 7.043-3.121a8.7 8.7 0 0 1 1.742-.176c2 0 4.118.691 5.32 2.41 1.516 2.168.962 5.664-1.21 7.629m-6.034-10.754c-2.52.523-6.043 1.453-7.586 3.453-1.188 1.547-1.493 3.254-.887 4.945.828 2.297 3.36 4.356 6.156 4.997.867.195 1.738.296 2.594.296 2.441 0 4.75-.796 6.367-2.261 2.543-2.297 3.149-6.258 1.352-8.825-1.805-2.578-5.317-3.164-7.996-2.605M353.473 110.66c-.453.95-1.172 1.55-2.196 1.848-5.53 1.601-17.945-6.262-25.363-10.953-2.242-1.418-4.008-2.54-5.148-3.13-1.758-.917-3.778-2.206-3.774-4.081.008-2.313 3.008-3.48 5.793-3.594q.234-.005.492-.004c6.653 0 24.61 4.582 29.668 12.266 1.606 2.437 1.782 5.011.528 7.648M322.75 89.84c-3.21.129-6.664 1.59-6.672 4.5-.008 2.37 2.277 3.86 4.266 4.894 1.105.575 2.86 1.684 5.082 3.09 7.258 4.594 17.86 11.305 24.215 11.301.68 0 1.312-.074 1.886-.242 1.274-.367 2.203-1.149 2.77-2.328 1.402-2.95 1.207-5.82-.59-8.543-5.453-8.285-24.422-12.938-30.957-12.672M443.25 262.316c-.437 2.579-3.465 3.98-6.047 3.672-12.21-1.476-27.894-12.36-35.422-21.593-7.633-9.36-11.86-18.649-13.699-30.125-.34-2.106-.762-4.723.207-6.872.543-1.218 1.672-2.03 3.356-2.421a10.5 10.5 0 0 1 2.335-.247c3.063 0 6.434 1.086 8.032 2.418 2.273 1.903 3.617 4.723 4.43 6.676 1.288 3.11 2.253 6.496 3.187 9.774 2.047 7.187 4.16 14.613 9.828 19.543 2.11 1.828 4.582 3.175 6.98 4.48 2.067 1.129 4.211 2.293 6.07 3.754.622.484 1.446 1.05 2.4 1.703 3.534 2.426 8.882 6.086 8.343 9.238m-10.18-11.66c-1.922-1.508-4.097-2.691-6.199-3.836-2.351-1.28-4.785-2.605-6.812-4.37-5.465-4.747-7.454-11.716-9.551-19.102-.942-3.301-1.918-6.711-3.227-9.871-.847-2.043-2.254-4.997-4.687-7.028-2.188-1.828-7.305-3.25-11.156-2.363-1.946.453-3.325 1.465-3.985 2.937-1.074 2.399-.633 5.165-.273 7.387 1.843 11.488 6.257 21.2 13.894 30.563 7.637 9.37 23.582 20.414 36.02 21.918.265.035.539.05.808.05 2.786 0 5.774-1.652 6.25-4.468.63-3.73-4.777-7.438-8.726-10.149-.946-.64-1.754-1.199-2.356-1.668M6.902 91.332c.774-1.406 2.235-2.547 3.817-2.969a6 6 0 0 1 1.597-.207c1.141 0 2.243.285 3.391.586 1.348.352 2.742.711 4.2.543 2.085-.25 4.523-2.191 6.667-3.91.797-.633 1.547-1.23 2.172-1.652 1.684-1.13 3.625-2.29 5.461-1.758 1.238.36 2.281 1.523 2.719 3.043.422 1.46.293 3.023.094 4.496a38.6 38.6 0 0 1-4.125 12.851c-1.243 2.352-3.317 5.168-6.16 5.266-1.715.07-3.31-.863-5.063-1.988l-11.367-7.29C8.598 97.25 7.02 96.13 6.504 94.466c-.399-1.266 0-2.403.398-3.133m2.91 7.781 11.368 7.29c1.488.952 3.332 2.136 5.398 2.136q.094-.002.188-.004c2.597-.09 4.996-2.078 6.933-5.75a39.6 39.6 0 0 0 4.227-13.16c.203-1.492.344-3.242-.125-4.871-.524-1.817-1.801-3.223-3.344-3.668-2.203-.637-4.367.633-6.219 1.879-.656.441-1.422 1.05-2.23 1.7-1.953 1.558-4.38 3.5-6.211 3.71-1.277.156-2.535-.172-3.863-.52-1.711-.445-3.485-.906-5.454-.375-1.808.489-3.488 1.793-4.375 3.415-.699 1.27-.863 2.597-.476 3.843.61 1.957 2.328 3.188 4.184 4.375M403.79 439.43c-1.724-.547-7.321-2.657-7.063-6.711.109-1.766 1.336-3.313 3.644-4.598 1.242-.691 2.582-1.312 3.871-1.918 1.051-.492 2.137-.996 3.184-1.547a148 148 0 0 1 16.64-7.422c3.801-1.414 7.887-2.754 12.043-2.921q.324-.012.653-.012c6.398 0 14.023 3.722 15.668 10.031 1.265 4.856-1.532 9.75-4.871 12.445-3.149 2.543-7.391 4.157-13.34 5.063a67.16 67.16 0 0 1-30.43-2.41m44.397-1.875c3.586-2.895 6.59-8.184 5.211-13.473-1.832-7.012-10.39-11.039-17.328-10.766-4.297.172-8.48 1.532-12.355 2.98a148 148 0 0 0-16.754 7.474c-1.027.539-2.102 1.039-3.145 1.527-1.304.613-2.656 1.238-3.933 1.953-2.625 1.46-4.024 3.273-4.16 5.402-.29 4.649 5.328 6.957 7.761 7.73a68 68 0 0 0 20.704 3.216c3.406 0 6.82-.254 10.183-.77 6.133-.937 10.524-2.613 13.817-5.273M280.734 435.754c-1.144.39-2.41.312-3.632.234l-12.997-.808c-1.91-.121-3.882-.243-5.71-.84-1.985-.649-3.508-1.813-4.293-3.277-.887-1.668-.688-3.731.48-4.907.863-.863 2.035-1.172 3.32-1.172 1.246 0 2.594.286 3.875.621l3.29.868c4.519 1.191 9.195 2.422 13.824 3.511 1.937.457 3.886 2.098 4.09 3.446.18 1.226-1.122 1.941-2.247 2.324m-1.617-6.742c-4.613-1.086-9.281-2.32-13.793-3.512l-3.293-.863c-2.883-.758-6.11-1.25-8.16.816-1.469 1.477-1.742 4.035-.648 6.082.906 1.692 2.632 3.027 4.859 3.758 1.95.637 3.988.766 5.961.887l12.996.808c.5.032 1.024.063 1.559.063.816 0 1.656-.074 2.46-.348 2.829-.969 3.04-2.558 2.91-3.418-.288-1.945-2.741-3.781-4.85-4.273M19.242 0A158 158 0 0 1 0 10.52v.992A160.6 160.6 0 0 0 21.031 0z"/><g clip-path="url(#a)"><path fill="#fafbf9" d="M448.875 66.445c-4.973-.156-9.363-1.578-13.613-2.953-3.266-1.058-7.52-1.105-12.645-.14-8.558 1.617-16.847 9.34-15.531 18.253 1.285 8.696 10.176 13.207 18.027 17.188 1.18.598 2.348 1.187 3.469 1.785 12.113 6.422 21.91 16.707 27.777 29.074v-2.066c-6.023-11.8-15.617-21.594-27.347-27.813-1.13-.601-2.301-1.191-3.485-1.796-8.027-4.067-16.324-8.278-17.535-16.504-1.242-8.395 6.649-15.684 14.797-17.223 2.356-.445 4.555-.668 6.547-.668 2.144 0 4.047.258 5.644.773 4.31 1.395 8.762 2.84 13.868 3.004 2.46.079 4.972-.105 7.511-.535v-.926c-2.527.434-5.03.625-7.484.547"/></g><g clip-path="url(#b)"><path fill="#fafbf9" d="M390.605 56.465c-1.789.496-3.503 1.004-5.16 1.496-7.89 2.348-14.699 4.371-23.812 2.871-9.598-1.582-18.762-5.574-27.621-9.437-1.032-.45-2.055-.895-3.078-1.336-14.348-6.204-35.25-13.274-51.067-3.196-3.133 1.992-5.957 4.617-8.691 7.157-4.906 4.546-9.54 8.843-15.77 9.843-11.18 1.793-20.855-8.453-25.476-19.398-1.383-3.278-2.551-6.754-3.688-10.117-2.597-7.723-5.285-15.703-10.746-21.891-3.957-4.398-9.906-8.68-16.5-12.457h-1.848c7.063 3.914 13.493 8.426 17.668 13.063 5.336 6.046 7.993 13.94 10.567 21.574 1.137 3.379 2.312 6.875 3.707 10.18 4.387 10.394 13.25 20.163 23.754 20.163.89 0 1.797-.07 2.71-.214 6.505-1.043 11.454-5.637 16.239-10.082 2.703-2.508 5.504-5.102 8.562-7.051 15.457-9.848 36.06-2.852 50.211 3.262 1.028.44 2.051.886 3.082 1.335 8.91 3.887 18.125 7.907 27.836 9.504 9.32 1.536 16.223-.523 24.22-2.894 1.655-.492 3.358-1.004 5.144-1.496 11.16-3.078 22.886-3.907 34.234-4.715 10.332-.73 20.996-1.508 31.277-3.957v-.942c-10.273 2.473-20.976 3.254-31.347 3.989-11.387.808-23.164 1.648-34.407 4.746"/></g><g clip-path="url(#c)"><path fill="#fafbf9" d="M358.379 20.066c-6.313-1.593-12.692-3.644-18.863-5.625-13.493-4.34-27.387-8.812-41.559-8.812a64 64 0 0 0-5.8.262c-2.876.261-5.786.738-8.602 1.195-6.035.984-12.282 2.004-18.32.934-6.52-1.16-12.536-4.743-17.88-8.02h-1.878c.238.145.476.3.71.445 5.583 3.426 11.907 7.309 18.872 8.547 6.203 1.102 12.535.067 18.656-.926 2.797-.457 5.691-.933 8.531-1.191 15.973-1.46 31.734 3.602 46.969 8.504 6.183 1.988 12.582 4.043 18.922 5.644 11.394 2.875 23.246 4.317 35.18 4.317a149.5 149.5 0 0 0 31.765-3.418c10.684-2.324 21.195-5.84 31.277-10.41v-.992c-30.98 14.242-65.336 17.785-97.98 9.546"/></g><path fill="#fafbf9" d="M400.68 6.965c11.976 0 23.949-3.031 35.523-6.965h-3.18c-15.109 4.895-30.824 7.95-46.218 4.453C382.242 3.414 377.8 1.801 373.46 0h-2.574c5.066 2.18 10.285 4.2 15.695 5.43 4.688 1.062 9.39 1.535 14.098 1.535"/><g clip-path="url(#d)"><path fill="#fafbf9" d="M334.352 31.367c-4.918-1.383-9.883-3.152-14.688-4.863-10.66-3.797-21.644-7.711-32.95-7.711-1.265 0-2.53.05-3.804.152-3.91.317-7.894 1.153-11.742 1.961-8.031 1.688-15.613 3.278-22.95.727-6.988-2.43-12.144-8.238-17.124-13.856-.848-.953-1.684-1.902-2.531-2.828A122 122 0 0 0 223.777 0h-1.304a119 119 0 0 1 5.414 5.566c.843.922 1.68 1.868 2.52 2.817 5.066 5.703 10.296 11.605 17.511 14.113 7.574 2.637 15.64.942 23.437-.695 3.82-.801 7.778-1.633 11.63-1.946 12.452-1.011 24.617 3.32 36.378 7.508 4.813 1.715 9.793 3.492 14.739 4.883 13.207 3.715 27 4.883 40.671 4.883 7.95 0 15.86-.395 23.594-.914 19.156-1.281 39.215-3.442 57.992-9.817v-.968c-18.77 6.418-38.863 8.586-58.054 9.875-20.953 1.402-43.207 1.898-63.953-3.938"/></g><g clip-path="url(#e)"><path fill="#fafbf9" d="M424.34 121.363c-5.938-8.336-12.457-17.035-21.078-23.715-17.77-13.761-39.36-23.28-56.707-30.933-13.004-5.738-29.188-12.871-45.621-11.54-15.375 1.259-32.207 12.805-32.586 29.274-.235 9.965 5.89 20.457 16.37 28.067 6.184 4.488 13.223 7.773 20.028 10.953 3.145 1.472 6.395 2.992 9.516 4.61 15.406 7.98 23.988 17.628 26.246 29.495 1.476 7.754-.324 15.168-2.067 22.344-1.253 5.16-2.55 10.5-2.664 16.008-.21 10.062 4.692 18.84 9.438 27.332.598 1.07 1.2 2.144 1.785 3.219 5.406 9.867 10.836 19.73 16.262 29.59l7.965 14.476c4.16 7.574 8.878 16.152 14.96 23.57 6.274 7.649 13.266 9.403 22.118 11.621l2.613.66c10.559 2.715 21.535 4.352 32.148 5.934 4.399.652 8.848 1.324 13.293 2.067v-.926c-4.402-.735-8.804-1.399-13.156-2.043-10.594-1.578-21.543-3.211-32.062-5.914-.891-.23-1.762-.446-2.614-.66-8.687-2.184-15.55-3.903-21.632-11.32-6.032-7.352-10.727-15.895-14.864-23.427l-7.969-14.48c-5.43-9.86-10.855-19.719-16.261-29.59-.59-1.07-1.188-2.148-1.793-3.226-4.68-8.38-9.524-17.047-9.317-26.868.11-5.402 1.395-10.695 2.637-15.812 1.766-7.266 3.59-14.781 2.074-22.727-2.308-12.16-11.05-22.015-26.722-30.136-3.137-1.625-6.395-3.149-9.551-4.621-6.762-3.165-13.758-6.434-19.871-10.868-10.242-7.433-16.223-17.64-16-27.308.37-15.961 16.773-27.16 31.75-28.383 1.336-.11 2.676-.16 4.004-.16 14.82 0 29.328 6.398 41.176 11.625 17.304 7.633 38.835 17.129 56.515 30.82 8.524 6.602 14.996 15.242 20.895 23.52 4.297 6.03 8.941 11.8 13.437 17.379 7.027 8.722 13.832 17.199 19.324 26.488v-1.805c-5.37-8.816-11.898-16.918-18.613-25.254-4.484-5.57-9.125-11.324-13.406-17.336"/></g><g clip-path="url(#f)"><path fill="#fafbf9" d="M435.273 227.516c-2.246-3.024-4.394-6.235-6.468-9.34-5.18-7.73-10.528-15.723-17.899-21.61-2.601-2.07-5.488-3.918-8.281-5.703-5.77-3.691-11.742-7.511-15.152-13.406-3.59-6.219-3.32-12.328-3.067-18.242.028-.57.051-1.133.074-1.7.153-4.066.172-8.398-1.418-12.788-1.14-3.145-3.972-5.829-7.23-6.836-2.453-.758-4.824-.442-6.68.894-4.504 3.235-3.836 9.598-2.449 15.988 3.32 15.278 2.64 29.817 1.414 43.25-1.058 11.59 3.149 22.336 6.93 30.399 9.484 20.226 26.488 36.383 46.656 44.332 11.07 4.363 22.973 5.91 34.656 7.129v-.914c-11.59-1.215-23.39-2.758-34.32-7.063-19.953-7.867-36.777-23.855-46.168-43.87-3.73-7.962-7.883-18.556-6.844-29.927 1.235-13.507 1.91-28.129-1.433-43.527-1.32-6.09-1.98-12.125 2.09-15.059 1.039-.742 2.265-1.12 3.586-1.12.742 0 1.511.12 2.296.363 2.942.91 5.614 3.43 6.637 6.273 1.535 4.23 1.512 8.465 1.363 12.441-.02.563-.046 1.13-.07 1.692-.266 6.043-.535 12.289 3.192 18.742 3.519 6.09 9.582 9.969 15.449 13.715 2.773 1.773 5.636 3.61 8.199 5.648 7.262 5.801 12.574 13.73 17.707 21.407 2.082 3.113 4.238 6.332 6.5 9.379 5.887 7.921 13.219 15.515 21.816 22.636V249.5c-8.285-6.926-15.375-14.3-21.086-21.984"/></g><g clip-path="url(#g)"><path fill="#fafbf9" d="M440.008 185.86c-2.887-3.083-6.07-5.958-9.153-8.739-3.644-3.297-7.418-6.703-10.695-10.457-6.973-7.988-11.851-17.695-16.566-27.078-1.559-3.098-3.168-6.3-4.828-9.39-10.266-19.114-27.418-32.723-41.211-42.446-18.586-13.098-39.282-16.113-55.348-8.055-2.246 1.125-4.219 2.512-5.863 4.133-1.992 1.957-3.399 4.152-4.176 6.524-.98 2.96-.86 6.066.328 8.507 1.867 3.836 8.121 6.426 12.688 8.317.753.316 1.453.601 2.058.87a463 463 0 0 0 7.254 3.083c6.965 2.91 14.176 5.922 20.684 9.945 6.992 4.328 16.066 11.778 19.55 22.692 2.762 8.644 1.56 18 .391 27.047-.266 2.078-.539 4.226-.766 6.328-2.453 23.148 1.387 45.406 11.114 64.367 10.422 20.316 27.844 36.277 47.812 43.773 13.711 5.156 28.559 6.48 43.078 7.496v-.918c-14.433-1-29.183-2.332-42.761-7.43-19.754-7.421-36.996-23.222-47.317-43.34-9.644-18.8-13.453-40.882-11.015-63.855.218-2.09.496-4.23.761-6.304 1.176-9.149 2.399-18.606-.425-27.442-3.57-11.183-12.817-18.781-19.946-23.187-6.566-4.063-13.804-7.09-20.812-10.016-2.375-.996-4.836-2.02-7.235-3.074-.609-.27-1.312-.563-2.074-.875-4.18-1.734-10.504-4.356-12.219-7.875-1.082-2.234-1.187-5.086-.285-7.824.735-2.23 2.067-4.305 3.953-6.157 1.575-1.554 3.473-2.886 5.63-3.968 5.816-2.918 12.257-4.348 18.988-4.348 11.507 0 23.875 4.191 35.43 12.332 13.71 9.664 30.757 23.184 40.929 42.125 1.656 3.086 3.262 6.285 4.816 9.375 4.743 9.438 9.649 19.191 16.696 27.266 3.312 3.793 7.105 7.222 10.773 10.535 3.063 2.77 6.234 5.633 9.098 8.687 7.949 8.485 11.476 19.547 14.883 30.243.691 2.171 1.39 4.363 2.132 6.546v-2.906a645 645 0 0 1-1.261-3.918c-3.442-10.793-7-21.949-15.09-30.59"/></g><g clip-path="url(#h)"><path fill="#fafbf9" d="M404.723 322.523c-6.426-.199-13.164-.12-18.723 3.215-6.89 4.133-7.375 9.825-7.887 15.86-.222 2.574-.445 5.234-1.187 7.87-2.176 7.708-8.848 16.036-16.992 21.212-16.293 10.343-37.657 8.488-52.211 3.3a498 498 0 0 1-4.551-1.652c-10.445-3.832-21.254-7.793-32.371-6.793-8.492.77-16.403 4.395-24.051 7.899-3.273 1.5-6.66 3.054-10.05 4.355-23.579 9.086-57.762 12.852-77.09-.363-11.075-7.57-20.52-12.406-33.344-13.117-8.825-.497-16.711 2.214-21.637 7.437-5.461 5.793-8.207 13.195-7.957 21.418.324 10.578 5.543 21.594 13.953 29.477 6.02 5.64 12.473 7.254 19.309 8.953 2.601.648 5.296 1.32 8.078 2.234 7.46 2.45 14.992 5.102 22.277 7.668 5.133 1.809 10.445 3.68 15.691 5.461 6.633 2.258 14.204 5.543 21.168 9.402h1.848c-7.394-4.238-15.601-7.84-22.723-10.265a1431 1431 0 0 1-15.68-5.461c-7.288-2.567-14.823-5.223-22.296-7.672-2.817-.926-5.524-1.602-8.14-2.254-7.012-1.742-13.063-3.25-18.907-8.73-8.238-7.72-13.348-18.5-13.664-28.84-.246-7.977 2.418-15.153 7.703-20.762 4.371-4.633 11.195-7.21 18.941-7.21a38 38 0 0 1 1.985.05c12.613.703 21.93 5.48 32.879 12.969 19.601 13.394 54.14 9.628 77.933.464 3.414-1.316 6.817-2.878 10.106-4.386 7.578-3.473 15.414-7.063 23.75-7.817 10.914-.984 21.62 2.946 31.976 6.739 1.524.558 3.04 1.117 4.555 1.656 14.762 5.258 36.438 7.129 53.008-3.387 8.328-5.293 15.148-13.824 17.379-21.738.765-2.719.996-5.422 1.219-8.043.515-6.04.96-11.258 7.453-15.152 5.343-3.207 11.933-3.282 18.222-3.082 6.914.218 13.711.59 20.215 1.109 10.313.824 20.961 2.094 31.45 3.976v-.925c-10.47-1.875-21.09-3.141-31.376-3.961a425 425 0 0 0-20.261-1.114"/></g><g clip-path="url(#i)"><path fill="#fafbf9" d="M397.02 392.621c-11.391 7.84-23.176 15.95-36.547 19.75-8.48 2.406-14.606 2.555-23.403.559l-27.523-6.239c-18.602-4.218-37.828-8.57-57.317-7.996-10.523.317-35.746 2.524-42.671 16.102-4.36 8.55-1.344 18.976 6.867 23.734 6.707 3.88 13.402 8.074 19.875 12.125q4.581 2.873 9.176 5.703h1.878l-.648-.394c-3.3-2.031-6.59-4.086-9.879-6.149-6.484-4.054-13.187-8.253-19.906-12.144-7.758-4.492-10.606-14.34-6.484-22.426 6.687-13.11 31.476-15.25 41.824-15.562 19.363-.582 38.523 3.765 57.066 7.968l27.524 6.246c8.98 2.036 15.23 1.883 23.894-.578 13.524-3.843 25.375-12 36.836-19.882 2.813-1.938 5.727-3.942 8.606-5.844 13.835-9.121 32.347-18.504 50.171-18.7v-.988c-18.062.203-36.754 9.656-50.71 18.867-2.895 1.907-5.81 3.91-8.63 5.848"/></g><g clip-path="url(#j)"><path fill="#fafbf9" d="M433.027 456.36h3.176a280 280 0 0 0 7.817-2.798c4.082-1.515 8.28-3.16 12.34-5.16v-1.117c-4.157 2.086-8.485 3.777-12.684 5.34-3.512 1.305-7.063 2.574-10.649 3.734"/></g><g clip-path="url(#k)"><path fill="#fafbf9" d="M412.484 406.207c-4.379 2.527-8.746 5.297-12.968 7.977-11.43 7.25-23.243 14.75-36.43 18.171-14.027 3.645-30.04 2.957-50.383-2.164-6.637-1.671-13.308-3.671-19.765-5.605-9.645-2.89-19.618-5.883-29.676-7.836-3.778-.734-8.168-1.445-12.403-.594-4.62.93-8.355 3.79-9.742 7.461-1.847 4.883.563 10.145 3.77 13.2 3.71 3.523 8.722 5.105 12.672 6.085 14.472 3.602 29.742 2.754 44.503 1.938 15.66-.871 31.848-1.77 46.954 2.691 5.765 1.703 11.382 4.2 16.82 6.61 1.668.742 3.348 1.488 5.05 2.218h2.575c-2.438-1.007-4.844-2.074-7.219-3.129-5.465-2.43-11.117-4.937-16.945-6.66-9.067-2.675-18.488-3.445-27.95-3.445-6.464 0-12.945.36-19.335.715-14.696.816-29.89 1.66-44.215-1.906-3.828-.954-8.68-2.477-12.219-5.848-2.965-2.824-5.207-7.66-3.527-12.117 1.27-3.352 4.719-5.969 9.004-6.832 4.062-.817 8.332-.121 12.015.597 10.012 1.942 19.957 4.922 29.582 7.809 6.461 1.937 13.149 3.945 19.805 5.621 20.516 5.16 36.68 5.852 50.879 2.164 13.34-3.465 25.223-11.008 36.715-18.297 4.215-2.676 8.574-5.437 12.933-7.957 15.235-8.8 28.243-12.87 39.723-12.453 1.23.047 2.45.184 3.652.383v-1.016a30 30 0 0 0-3.613-.363c-11.723-.437-24.86 3.688-40.262 12.582"/></g><g clip-path="url(#l)"><path fill="#fafbf9" d="M427.11 349.32c-13.212 4.575-24.856 13.047-36.118 21.239-13.086 9.527-26.625 19.375-42.48 22.855-15 3.29-30.551.54-45.594-2.121-11.438-2.023-23.266-4.11-34.93-3.617-13.867.59-27.379 4.832-40.441 8.933-3.707 1.16-7.531 2.364-11.305 3.461-21.254 6.192-37.562 6.809-52.867 2.02-5.516-1.727-10.684-4.817-15.68-7.805-7.265-4.344-14.777-8.836-23.687-9.43-4.121-.277-7.547 1.403-9.664 4.715-2.961 4.633-2.918 11.723.101 17.243 3.364 6.148 10.04 10.925 18.797 13.437 5.317 1.527 10.895 2.18 16.285 2.809 2.246.265 4.567.535 6.832.867 24.875 3.633 48.078 15.058 66.118 32.433h1.3c-18.27-17.87-41.91-29.632-67.285-33.336-2.277-.336-4.605-.605-6.855-.87-5.356-.626-10.895-1.274-16.14-2.778-8.524-2.453-15.009-7.066-18.25-13-2.864-5.242-2.923-11.95-.134-16.312 1.367-2.137 4-4.61 8.836-4.297 8.688.578 16.102 5.011 23.278 9.3 5.039 3.02 10.257 6.133 15.875 7.895 15.488 4.848 31.957 4.226 53.394-2.012 3.781-1.101 7.617-2.304 11.32-3.472 13.008-4.082 26.461-8.301 40.211-8.891 11.563-.5 23.344 1.586 34.735 3.605 15.129 2.676 30.77 5.446 45.945 2.114 16.047-3.524 29.656-13.426 42.824-23.008 11.203-8.152 22.79-16.586 35.875-21.113 9.242-3.196 19.203-4.204 28.953-3.204v-.918c-9.855-.992-19.914.028-29.25 3.258"/></g><g clip-path="url(#m)"><path fill="#fafbf9" d="M117.055 439.18c-13.07-.64-24.34 6.914-31.86 17.18h1.133c7.348-9.778 18.176-16.895 30.684-16.274 8.55.426 16.672 4.5 23.84 8.09l16.312 8.183h2.043l-17.945-9c-7.25-3.632-15.461-7.75-24.207-8.18"/></g><g clip-path="url(#n)"><path fill="#fafbf9" d="M0 327.598v.925c46.574 8.36 90.04 28.86 87.02 76.57-1.313 20.743-11.31 36.536-23.723 51.266h1.191c12.285-14.683 22.133-30.48 23.442-51.207 3.062-48.418-40.903-69.144-87.93-77.554"/></g><g clip-path="url(#o)"><path fill="#fafbf9" d="M46.168 407.07c-2.598-15.972-13.988-30.156-29.027-36.132-5.524-2.196-11.301-3.094-17.141-3.032v.989c5.723-.063 11.375.812 16.777 2.96 14.723 5.852 25.875 19.735 28.414 35.372 2.621 16.164-3.87 33.187-16.156 42.367-3.2 2.39-6.469 4.64-9.793 6.765h1.79c2.925-1.898 5.8-3.886 8.597-5.972 12.57-9.395 19.215-26.805 16.539-43.317"/></g><path fill="#fafbf9" d="M17.723 404.191C13.539 398.793 7.086 395.13 0 393.988v1.016c6.777 1.125 12.93 4.64 16.934 9.8 4.222 5.45 5.714 12.27 4.199 19.208-1.492 6.812-6.11 13.347-13.012 18.398-2.559 1.875-5.3 3.465-8.121 4.875v1.117c3.02-1.492 5.965-3.172 8.715-5.183 7.098-5.196 11.851-11.942 13.394-18.996 1.578-7.23.024-14.348-4.386-20.032"/><g clip-path="url(#p)"><path fill="#fafbf9" d="M38.695 362.633C28.18 353.223 14.316 347.512 0 346.063v.917c14.094 1.438 27.738 7.07 38.086 16.336 18.02 16.13 25.676 42.325 19.062 65.18-2.93 10.121-8.52 19.59-16.238 27.863h1.238c7.524-8.23 12.977-17.601 15.88-27.609 6.706-23.187-1.063-49.758-19.333-66.117"/></g><path fill="#fafbf9" d="M87.96 347.5c6.11 3.941 15.798 10.18 24.5 10.18 1.306 0 2.59-.145 3.837-.453 4.316-1.075 7.887-4.082 10.605-8.942 3.371-6.015 4.016-13.86 1.817-22.082-1.953-7.305-5.739-13.937-9.395-20.351-2.09-3.664-4.11-7.563-6.058-11.336-8.957-17.325-18.227-35.239-38.758-40.27-5.645-1.383-11.664-1.648-17.492-1.902-9.672-.426-18.813-.828-26.516-5.883-8.816-5.785-12.8-16.176-14.59-23.875-1.242-5.344-1.875-10.902-2.484-16.281-.461-4.082-.942-8.297-1.684-12.41C9.687 182.53 5.437 172.879 0 163.953v1.805c5.004 8.48 8.918 17.633 10.844 28.297.738 4.082 1.215 8.289 1.676 12.355.613 5.403 1.246 10.988 2.5 16.383 1.828 7.86 5.91 18.48 14.984 24.434 7.91 5.191 17.601 5.613 26.973 6.027 5.78.254 11.757.52 17.312 1.879 20.133 4.93 29.3 22.66 38.168 39.804 1.953 3.778 3.977 7.688 6.07 11.368 3.633 6.36 7.391 12.941 9.309 20.136 2.137 7.993 1.523 15.59-1.727 21.399-2.593 4.629-5.968 7.488-10.03 8.504-9.169 2.281-20.72-5.16-27.622-9.606C66.918 332.863 44.176 324.93 24.77 319c-8.047-2.457-16.415-4.133-24.77-5.531v.926c8.273 1.386 16.55 3.05 24.5 5.476 19.348 5.914 42.016 13.82 63.46 27.629"/><path fill="#fafbf9" d="M13.445 293.73c17.907 1.438 38.285 4.52 53.692 16.45 1.828 1.414 3.605 2.968 5.324 4.476 3.309 2.903 6.734 5.903 10.684 8.035 3.046 1.649 6.773 2.735 10.41 2.735 3.32 0 6.574-.906 9.16-3.13 7.2-6.171 4.937-18.265-1.418-26.394-11.238-14.379-29.285-20.613-46.742-26.644l-.461-.164c-17.547-6.059-35.492-13.25-45.266-28.469C4.84 234.41 2.281 227.375 0 220.371v2.902c2.094 6.184 4.516 12.32 8.063 17.848 9.93 15.461 28.035 22.723 45.73 28.836l.465.16c17.328 5.992 35.25 12.18 46.324 26.348 6.086 7.793 8.324 19.32 1.54 25.14-5.09 4.368-12.981 3.286-18.544.286-3.86-2.086-7.246-5.051-10.52-7.922-1.722-1.516-3.511-3.082-5.359-4.512-15.597-12.078-36.144-15.187-54.183-16.633a741 741 0 0 0-9.856-.71c-1.219-.087-2.437-.169-3.66-.255v.918l3.598.246c3.234.215 6.578.446 9.847.707"/><path fill="#fafbf9" d="M6.004 280.496c4.824.606 9.7 1.715 13.828 2.723 5.043 1.226 9.926 1.347 15.102 1.476l1.62.043q.453.012.91.012c2.009 0 4.102-.246 5.481-1.707 1.012-1.07 1.438-2.273 1.25-3.57-.304-2.18-2.285-4.067-4.035-5.102-1.668-.988-3.531-1.586-5.332-2.164-.496-.16-.988-.32-1.484-.488-8.903-3.035-16.852-9.235-24.54-15.23-1.187-.923-2.359-1.844-3.523-2.735A154 154 0 0 1 0 249.5v1.195c1.54 1.278 3.105 2.54 4.727 3.782 1.16.89 2.332 1.808 3.515 2.73C15.992 263.25 24 269.5 33.051 272.582c.5.172.996.332 1.5.492 1.75.567 3.562 1.149 5.144 2.082 1.57.926 3.34 2.586 3.598 4.446.145 1.007-.2 1.953-1.012 2.816-1.332 1.41-3.543 1.469-5.699 1.41l-1.629-.043c-5.121-.129-9.957-.25-14.91-1.457-4.152-1.012-9.059-2.125-13.938-2.738l-1.828-.184Q2.145 279.19 0 278.97v.914c1.398.152 2.797.289 4.188.433zM2.18 134.621c2.992 7.184 6.093 14.61 13.195 17.172 1.438.516 2.984.766 4.574.766 4.149 0 8.606-1.707 12.242-4.856 4.586-3.969 7.489-9.379 10.067-14.586a265.2 265.2 0 0 0 20.258-55.972c1.597-6.707 3.164-14.485 1.422-21.88-1.555-6.59-6.88-14.07-14.891-14.921-7.938-.844-14.29 4.77-20.434 10.195-1.43 1.266-2.91 2.574-4.363 3.75C16.547 60.527 8.148 64.512 0 65.902v.926C8.355 65.434 16.95 61.375 24.824 55c1.469-1.191 2.957-2.504 4.399-3.777 5.992-5.297 12.183-10.77 19.73-9.97 7.567.802 12.613 7.938 14.098 14.224 1.695 7.199.156 14.847-1.426 21.457a264.6 264.6 0 0 1-20.184 55.777c-2.539 5.125-5.39 10.445-9.847 14.305-4.782 4.14-11.028 5.675-15.91 3.918-6.723-2.426-9.743-9.66-12.664-16.66a177 177 0 0 0-1.438-3.387A62 62 0 0 0 0 127.586v2.066c.254.532.512 1.063.746 1.602.484 1.098.953 2.226 1.434 3.367"/><path fill="#fafbf9" d="M11.07 118.793c.266.52.52 1.043.774 1.57.898 1.852 1.828 3.762 3.125 5.43 1.902 2.441 4.426 3.844 7.3 4.059q.365.029.735.027c2.969 0 6.031-1.313 8.508-3.672 3.922-3.73 5.781-9.059 7.43-13.762.843-2.414 1.656-4.902 2.445-7.312 1.582-4.828 3.215-9.824 5.191-14.524 2.672-6.359 4.652-11.75 3.805-18.43-.399-3.1-1.551-7.25-4.82-9.386a8 8 0 0 0-1.274-.676c-4.043-1.683-8.984-.176-11.75 3.59-2.305 3.148-5.102 5.406-9.344 7.555-7.238 3.66-15.363 5.16-23.195 4.332v.918c7.977.824 16.242-.715 23.605-4.434 4.383-2.219 7.274-4.562 9.672-7.828 2.52-3.434 7-4.816 10.657-3.29q.599.248 1.129.595c2.976 1.945 4.042 5.828 4.414 8.742.82 6.45-1.122 11.73-3.743 17.957-1.988 4.734-3.629 9.75-5.214 14.598-.79 2.402-1.602 4.886-2.442 7.296-1.61 4.602-3.433 9.817-7.2 13.399-2.487 2.375-5.605 3.613-8.542 3.394-2.61-.195-4.91-1.476-6.648-3.714-1.239-1.586-2.145-3.454-3.024-5.262-.258-.531-.512-1.063-.781-1.586C9.008 112.695 4.914 107.477 0 103.12v1.227c4.555 4.168 8.36 9.097 11.07 14.445M49.207 152.254c-4.004 4.152-8.14 8.445-11.852 12.934-11.007 13.304-19.64 33.234-10.863 49.277 7.57 13.84 24.832 18.738 40.414 22.238 15.38 3.461 32.395 8.285 39.739 21.89 1.87 3.47 2.984 7.356 4.062 11.114.941 3.285 1.914 6.684 3.39 9.832 3.012 6.402 8.36 10.492 13.962 10.668q.195.005.39.004c4.844 0 9.086-2.879 11.977-8.145 3.5-6.378 5.3-14.02 7.039-21.406.84-3.566 1.637-6.933 2.61-10.18 6.8-22.656 16.96-43.152 29.39-59.257 12.379-16.043 23.988-23.543 40.082-25.875 16.543-2.395 33.887 1.074 47.582 9.527 3.2 1.98 6.297 4.254 9.293 6.45 4.066 2.984 8.27 6.07 12.808 8.476 9.395 4.972 18.86 5.785 25.98 2.226 8.618-4.304 13.43-15.14 11.45-25.77-1.668-8.96-7.664-17.452-16.883-23.917-4.187-2.934-8.98-4.84-13.609-6.684-4.344-1.73-8.832-3.515-12.66-6.117-5.496-3.738-10.719-9.156-15.77-14.402-1.793-1.852-3.48-3.606-5.164-5.27-16.195-15.98-27.144-30.547-34.445-45.832-1.418-2.969-2.742-6.066-4.024-9.066-3.292-7.7-6.699-15.66-12.039-22.278-8.402-10.394-20.949-16.687-32.015-22.238L159.203 0h-2.039l22.477 11.27c10.984 5.507 23.437 11.753 31.71 21.996 5.266 6.515 8.645 14.422 11.915 22.062 1.285 3.008 2.613 6.117 4.039 9.106 7.351 15.379 18.355 30.027 34.629 46.082 1.675 1.656 3.359 3.406 5.144 5.257 5.082 5.278 10.344 10.73 15.914 14.516 3.914 2.66 8.45 4.469 12.836 6.215 4.586 1.824 9.328 3.71 13.422 6.586 9.023 6.324 14.89 14.61 16.512 23.336 1.879 10.07-2.832 20.722-10.961 24.785-6.856 3.422-16.016 2.613-25.14-2.219-4.481-2.375-8.661-5.437-12.7-8.402-3.008-2.211-6.121-4.492-9.356-6.488-13.875-8.567-31.437-12.086-48.187-9.657-16.356 2.368-28.14 9.965-40.68 26.22-12.496 16.198-22.71 36.792-29.539 59.554-.98 3.27-1.812 6.808-2.62 10.23-1.727 7.332-3.513 14.906-6.954 21.184-2.793 5.082-6.887 7.8-11.54 7.66-5.253-.164-10.296-4.05-13.16-10.145-1.448-3.078-2.41-6.441-3.343-9.691-1.09-3.805-2.215-7.742-4.133-11.293-7.527-13.95-24.77-18.851-40.34-22.351-15.39-3.458-32.425-8.278-39.816-21.786-8.555-15.64-.05-35.183 10.762-48.254 3.691-4.464 7.82-8.746 11.808-12.886 8.2-8.5 16.672-17.29 21.801-28.106 8.012-16.894 6.902-36.902 5.234-54.328l-.367-3.75c-1.652-16.937-3.363-34.453 1.614-50.707C79.848 10.422 82.66 4.883 86.332 0h-1.133c-3.539 4.836-6.258 10.266-7.93 15.73-5.027 16.43-3.308 34.036-1.64 51.063l.363 3.746c1.653 17.305 2.758 37.164-5.152 53.852-5.063 10.68-13.488 19.418-21.633 27.863M42.152 0H40.91c-8.035 8.613-18.383 15.938-30.472 21.348C7.015 22.883 3.53 24.223 0 25.43v.968c3.656-1.246 7.266-2.628 10.809-4.214C23.305 16.59 33.953 8.969 42.152 0M55.371 10.363C58.492 6.938 61.562 3.5 64.488 0h-1.191c-2.77 3.29-5.66 6.523-8.602 9.75C38.496 27.512 24.277 41.566 1.246 47.445c-.41.106-.832.188-1.246.285v.942c.488-.121.984-.219 1.473-.344 23.273-5.941 37.593-20.086 53.898-37.965"/><g clip-path="url(#q)"><path fill="#fafbf9" d="M449.098 76.215c-3.141-.754-6.38-1.528-9.688-1.442-4.738.137-10.113 2.797-11.219 7.618-1.097 4.746 1.504 8.703 6.622 10.082A51.7 51.7 0 0 1 448 98.09a52.3 52.3 0 0 1 8.36 6.258v-1.227a53.5 53.5 0 0 0-7.891-5.812 52.6 52.6 0 0 0-13.418-5.715c-3.664-.989-7.153-3.871-5.973-9 1.004-4.367 5.973-6.781 10.36-6.906q.264-.007.523-.008c3.004 0 6.008.726 8.922 1.422 1.379.332 2.805.675 4.226.941 1.07.203 2.16.36 3.25.469v-.918a37 37 0 0 1-3.086-.45c-1.39-.257-2.808-.601-4.175-.93"/></g><path fill="#fafbf9" d="M129.714 305.518q-.002-.387.172-.593a.68.68 0 0 1 .516-.203c.226 0 .406.07.53.203q.188.206.188.593 0 .394-.187.594c-.125.133-.305.203-.531.203a.7.7 0 0 1-.5-.187q-.188-.187-.188-.61m0 0"/></svg>